<?xml version="1.0" encoding="utf-8"?>
<!-- Generator: Adobe Illustrator 23.1.0, SVG Export Plug-In . SVG Version: 6.00 Build 0)  -->
<svg version="1.1" id="Слой_1" xmlns="http://www.w3.org/2000/svg" xmlns:xlink="http://www.w3.org/1999/xlink" x="0px" y="0px"
	 viewBox="0 0 1024 1024" style="enable-background:new 0 0 1024 1024;" xml:space="preserve">
<style type="text/css">
	.st0{fill:#0AA510;}
	.st1{fill:#89C14D;}
</style>
<g>
	
		<image style="display:none;overflow:visible;enable-background:new    ;" width="512" height="512" xlink:href="C5F6920D.jpeg"  transform="matrix(1 0 0 1 256 259.0638)">
	</image>
	<polyline class="st0" points="415.1,294.3 433.5,294.3 434.5,746.6 415.1,746.5 	"/>
	<polyline class="st1" points="462,337.5 478.9,320 478.9,320 512.4,355.4 	"/>
	<polyline class="st0" points="479.2,464 479.2,485.8 650.9,485.8 650.9,464 	"/>
	<polyline class="st0" points="479.2,543 479.2,564.7 650.9,564.7 650.9,543 	"/>
	<polyline class="st0" points="650.9,621.9 650.9,643.7 479.2,643.7 479.2,621.9 	"/>
	<polyline class="st0" points="519.5,386 519.5,408.7 608.7,408.7 608.7,386 	"/>
	<polyline class="st1" points="479,621.9 650.9,621.9 650.9,564.7 479.2,564.7 	"/>
	<polyline class="st1" points="479.1,543 651,543 651,485.8 479.3,485.8 	"/>
	<polyline class="st1" points="478.1,465.4 650,465.4 650,408.2 519.5,408.2 478.3,408.2 	"/>
	<polyline class="st1" points="479.6,565.9 483.7,341.9 461.9,335.7 442.5,564.5 	"/>
	<polyline class="st1" points="519.5,283.9 511.9,283.9 511.9,352 471.4,338.8 469.8,410.5 519.5,410.5 	"/>
	<polyline class="st1" points="519.5,296.3 640.4,296.3 610,392.1 516,392.1 	"/>
</g>
<g id="Слой_4">
</g>
<g id="Слой_3">
	<polyline class="st1" points="462,338.4 446,354.7 446.5,296.4 433.5,296.3 434.5,744.1 	"/>
</g>
<g>
	<path class="st0" d="M446.5,276.3v20.2l-46.1-0.3c-6.2,1.1-22.9,5-37.7,19.5c-14.3,14.1-18.5,30.2-19.8,36.4l-19.5,0.8
		c1-7.1,5.1-31.5,26.1-51.5c22.5-21.5,49-23.3,55.7-23.6"/>
	<path class="st0" d="M402.4,762.9c-6.7-0.4-33.1-2.7-55.1-24.5c-20.5-20.3-24.1-44.4-24.9-51.4l19.2-5.8
		c0.4,5.3,2.7,26.3,20.4,43.5c17,16.6,37,18.8,42.5,19.3l233.9,0.5c5.4-0.6,26.3-3.8,42.9-22c15.5-17,17.5-36.4,17.9-42.1l19.2,9.2
		c-0.9,7-4.8,31.2-27.3,51.4c-24.2,21.8-53.2,24.1-60.5,24.5"/>
	<polyline class="st0" points="322.9,352.8 322.4,687 341.6,681.2 342.4,352.1 	"/>
	<polyline class="st0" points="698.8,354.6 699.1,680.4 718.3,689.7 715.6,346.2 	"/>
	<path class="st0" d="M512,277.5v18.6l127.1,0.3l-3.8-20.1l3.8,20.1c5.7,0.7,24,3.6,39.8,19.1c15.7,15.4,19.1,33.4,19.9,39.1
		l16.8-8.4c-0.8-6.5-4.5-28.7-25.5-47.4c-22.6-20.1-49.7-22.2-56.5-22.6"/>
	<path class="st0" d="M478.5,269.4"/>
	<path class="st0" d="M512,277.5c-0.3-1-1-3.1-2.6-4.9c-1.9-2.1-4-2.5-4.8-2.7l-48.8,0c-1,0.1-1.9-0.6-6.2,2.7
		c-2.2,1.7-3,3.9-3.4,4.9l-0.3,77.3l16-16.3l17-17.3l33.4,34.3"/>
	<path class="st1" d="M340.4,684.5c0.8,5.9,4.1,24.1,19.3,39.6c15.7,16.2,34.1,19.2,39.7,19.9l15.7,0V296.3l-15.1-0.1
		c-5.6,0.6-24,3.5-39.7,18.7c-15.1,14.6-18.4,31.7-19.3,37.2"/>
	<path class="st1" d="M637.8,744.5c6.3-0.7,23.2-3.3,38.6-17.1c18.6-16.7,22.3-38.2,23.1-43.9l-47.9-39.8h-69.2H479.2h-38.5
		l-6.1,100.3"/>
	<polyline class="st1" points="479.9,644.8 439.7,644.8 445.2,563.4 479.9,564.8 479.9,622.7 	"/>
	<polyline class="st1" points="610,392.2 639.6,296.7 698.8,356.4 650,408.7 608.7,408.7 608.7,392.2 	"/>
	<polygon class="st1" points="698.8,354.6 699.5,683.5 650.9,643.7 649.8,408.2 	"/>
	<path class="st1" d="M640.1,297.2l0.3-0.5c5.9,0.6,21.9,3.1,36.5,16.2c17.6,15.8,21.1,36.3,21.9,41.7l-0.9,0.9"/>
</g>
</svg>
